<?xml version="1.0" standalone="no"?>
<!DOCTYPE svg PUBLIC "-//W3C//DTD SVG 20010904//EN"
 "http://www.w3.org/TR/2001/REC-SVG-20010904/DTD/svg10.dtd">
<svg version="1.0" xmlns="http://www.w3.org/2000/svg"
 width="1462.000000pt" height="842.000000pt" viewBox="0 0 1462.000000 842.000000"
 preserveAspectRatio="xMidYMid meet">

<g transform="translate(0.000000,842.000000) scale(0.100000,-0.100000)"
fill="#000000" stroke="none">
<path d="M320 7340 l0 -790 3425 0 3425 0 0 -165 0 -165 -82 0 -82 0 72 -73
c39 -40 72 -76 72 -80 0 -4 -1537 -7 -3415 -7 l-3415 0 2 -792 3 -793 3423 -3
3422 -2 0 -145 0 -145 -74 0 c-41 0 -77 -4 -80 -8 -3 -5 33 -46 80 -93 l84
-84 -3427 -5 -3428 -5 -3 -792 -2 -793 3425 0 3425 0 0 -135 0 -135 -82 0 -83
0 155 -155 155 -155 -3498 0 -3497 0 0 -795 0 -795 7015 0 7015 0 0 795 0 795
-3492 0 -3493 0 148 148 c81 81 147 151 147 155 0 4 -36 7 -80 7 l-80 0 0 135
0 135 3425 0 3425 0 0 795 0 795 -3432 0 -3433 0 88 88 c48 48 87 91 87 95 0
4 -36 7 -80 7 l-80 0 0 145 0 145 3425 0 3425 0 0 795 0 795 -3417 0 -3417 0
72 73 c39 40 72 76 72 80 0 4 -36 7 -80 7 l-80 0 0 165 0 165 3425 0 3425 0 0
790 0 790 -7015 0 -7015 0 0 -790z m14020 0 l0 -780 -7005 0 -7005 0 0 780 0
780 7005 0 7005 0 0 -780z m-6858 -962 l3 -173 69 -3 70 -3 -145 -145 -144
-144 -143 142 -142 143 67 5 68 5 3 173 2 172 145 0 145 0 2 -172z m-220 -415
l78 -78 78 78 77 77 3423 0 3422 0 0 -775 0 -775 -3420 0 c-3033 0 -3420 2
-3420 15 0 13 -25 15 -165 15 -140 0 -165 -2 -165 -15 0 -13 -387 -15 -3420
-15 l-3420 0 0 775 0 775 3427 0 3428 0 77 -77z m218 -1633 l0 -169 69 -3 68
-3 -139 -144 -139 -145 -147 147 -147 147 73 0 72 0 0 170 0 170 145 0 145 0
0 -170z m-210 -425 l66 -65 64 65 64 65 3438 0 3438 0 0 -775 0 -775 -3419 0
-3420 0 -3 28 -3 27 -160 0 -160 0 -3 -27 -3 -28 -3420 0 -3419 0 0 775 0 775
3437 0 3437 0 66 -65z m212 -1617 l3 -173 69 -3 70 -3 -139 -139 c-77 -77
-144 -140 -150 -140 -6 0 -73 63 -150 140 l-139 139 70 3 69 3 3 173 2 172
145 0 145 0 2 -172z m6858 -1263 l0 -775 -7005 0 -7005 0 0 775 0 775 7005 0
7005 0 0 -775z"/>
<path d="M6322 7353 c3 -204 3 -208 24 -211 21 -3 22 1 26 107 4 124 17 151
72 151 57 0 61 -8 64 -140 4 -119 4 -120 28 -120 24 0 24 0 24 115 0 160 -14
185 -103 185 -28 0 -48 -7 -64 -22 l-23 -21 0 81 c0 81 0 82 -25 82 l-25 0 2
-207z"/>
<path d="M10610 7350 c0 -203 1 -210 20 -210 18 0 20 7 20 54 0 37 5 60 16 71
16 15 20 11 63 -54 39 -60 50 -71 74 -71 32 0 34 -5 -37 98 l-50 72 20 25 c10
13 34 42 52 64 l34 41 -29 0 c-23 -1 -39 -14 -83 -70 l-55 -69 -3 129 c-2 122
-4 130 -22 130 -19 0 -20 -8 -20 -210z"/>
<path d="M3890 7340 l0 -200 40 0 40 0 0 69 0 69 43 7 c92 16 127 52 127 131
0 87 -55 124 -187 124 l-63 0 0 -200z m154 108 c30 -42 11 -79 -46 -93 l-28
-7 0 61 c0 61 0 61 29 61 20 0 35 -8 45 -22z"/>
<path d="M7100 7340 l0 -200 25 0 c25 0 25 1 25 80 l0 80 45 0 c87 0 135 43
135 121 0 84 -51 119 -172 119 l-58 0 0 -200z m158 134 c16 -11 22 -25 22 -54
0 -49 -35 -80 -91 -80 l-39 0 0 75 0 75 43 0 c23 0 53 -7 65 -16z"/>
<path d="M7690 7339 l0 -200 23 3 c20 3 22 9 25 81 l3 77 47 0 c85 0 132 46
132 129 0 75 -56 111 -172 111 l-58 0 0 -201z m160 131 c26 -26 26 -81 0 -105
-10 -9 -40 -20 -65 -22 l-45 -6 0 77 0 76 45 0 c32 0 51 -6 65 -20z"/>
<path d="M8019 7512 c-29 -26 -34 -36 -33 -72 2 -51 27 -80 111 -124 56 -30
58 -33 58 -71 0 -32 -5 -42 -25 -53 -25 -13 -95 -11 -132 3 -14 6 -18 2 -18
-14 0 -30 42 -44 114 -39 51 4 63 9 87 36 33 37 39 93 13 130 -8 12 -46 38
-83 57 -72 36 -85 51 -75 91 10 41 69 57 128 34 21 -8 26 -6 31 11 10 29 2 33
-74 37 -64 4 -70 2 -102 -26z"/>
<path d="M8315 7353 c-37 -103 -70 -194 -72 -200 -3 -8 4 -13 20 -13 21 0 28
9 47 60 l23 61 75 -3 76 -3 20 -57 c17 -47 25 -58 43 -58 13 0 23 3 23 8 0 4
-31 93 -69 197 -62 171 -71 190 -93 193 -23 3 -28 -7 -93 -185z m119 46 c14
-41 26 -79 26 -82 0 -4 -25 -7 -56 -7 -46 0 -55 3 -50 15 3 8 16 46 28 84 12
39 23 69 24 68 1 -1 14 -36 28 -78z"/>
<path d="M8770 7340 l0 -200 25 0 25 0 0 162 0 162 96 -162 c89 -150 98 -162
125 -162 l29 0 0 200 0 200 -25 0 -24 0 -3 -157 -3 -158 -93 158 c-87 146 -95
157 -122 157 l-30 0 0 -200z"/>
<path d="M6150 7475 c-6 -19 -20 -37 -31 -40 -25 -8 -25 -35 1 -35 19 0 20 -7
20 -104 0 -90 3 -107 21 -130 18 -23 28 -27 63 -24 29 2 42 8 44 21 3 13 -4
17 -31 17 -44 0 -47 8 -47 126 l0 94 35 0 c28 0 35 4 35 20 0 16 -7 20 -35 20
-33 0 -35 2 -35 35 0 46 -25 47 -40 0z"/>
<path d="M9480 7475 c-6 -19 -20 -37 -31 -40 -25 -8 -25 -35 1 -35 19 0 20 -7
20 -100 0 -108 11 -147 46 -156 37 -10 79 0 82 19 3 13 -4 17 -31 17 -44 0
-47 8 -47 126 l0 94 35 0 c28 0 35 4 35 20 0 16 -7 20 -35 20 -33 0 -35 2 -35
35 0 46 -25 47 -40 0z"/>
<path d="M4217 7444 c-4 -4 -7 -74 -7 -156 l0 -148 39 0 39 0 4 100 c2 57 9
105 15 111 7 7 29 15 50 18 35 6 38 9 41 44 3 35 2 37 -27 37 -17 0 -42 -11
-60 -25 l-30 -26 -3 23 c-2 16 -11 24 -28 26 -14 2 -29 0 -33 -4z"/>
<path d="M4503 7430 c-44 -26 -63 -68 -63 -137 0 -101 51 -153 149 -153 75 0
101 13 101 51 0 26 -3 30 -17 24 -10 -4 -38 -10 -63 -12 -36 -4 -49 -1 -67 17
-44 41 -32 50 67 50 l90 0 0 45 c0 26 -7 60 -16 76 -28 56 -121 76 -181 39z
m114 -70 c12 -25 12 -25 -38 -28 -28 -2 -54 -1 -56 2 -3 3 2 17 11 31 22 34
65 31 83 -5z"/>
<path d="M4777 7443 c-4 -3 -7 -102 -7 -220 l0 -213 46 0 47 0 -6 86 -5 85 22
-20 c31 -30 90 -28 121 3 66 66 53 241 -20 274 -38 17 -69 15 -98 -8 l-26 -20
-6 20 c-4 14 -15 20 -34 20 -15 0 -31 -3 -34 -7z m161 -75 c15 -15 16 -112 2
-139 -12 -21 -50 -25 -68 -7 -16 16 -16 130 0 146 7 7 21 12 33 12 12 0 26 -5
33 -12z"/>
<path d="M5150 7439 c-33 -13 -32 -13 -19 -43 9 -19 17 -25 28 -20 58 24 101
15 101 -21 0 -23 -4 -25 -40 -25 -51 0 -105 -22 -119 -48 -20 -37 -13 -91 14
-117 31 -32 91 -34 128 -5 l26 21 11 -21 c6 -12 21 -20 35 -20 l25 0 0 126 c0
125 0 126 -29 155 -25 25 -37 29 -83 28 -29 0 -64 -5 -78 -10z m110 -180 c0
-36 -19 -59 -49 -59 -34 0 -46 28 -24 59 20 29 73 29 73 0z"/>
<path d="M5430 7295 l0 -155 40 0 40 0 0 93 c0 111 12 137 66 137 33 0 34 1
34 40 0 38 -2 40 -30 40 -20 0 -39 -9 -54 -25 l-24 -25 -6 25 c-5 20 -13 25
-36 25 l-30 0 0 -155z"/>
<path d="M5722 7434 c-45 -23 -66 -67 -66 -139 -1 -102 50 -155 147 -155 71 0
97 14 97 51 0 26 -3 30 -17 23 -63 -27 -143 -7 -143 36 0 18 7 20 90 20 l90 0
0 35 c0 44 -20 94 -49 119 -29 26 -107 31 -149 10z m108 -63 c18 -34 12 -41
-40 -41 -37 0 -50 4 -50 14 0 41 71 62 90 27z"/>
<path d="M6682 7415 c-73 -61 -58 -226 23 -263 32 -15 110 -16 136 -2 10 6 19
19 19 30 0 17 -4 18 -26 10 -69 -27 -144 7 -144 65 0 25 0 25 91 25 l92 0 -5
52 c-4 42 -11 57 -37 80 -42 38 -106 39 -149 3z m116 -28 c6 -6 13 -24 17 -40
l7 -27 -66 0 c-72 0 -83 12 -50 58 17 25 74 31 92 9z"/>
<path d="M7370 7433 c0 -5 24 -72 54 -151 52 -138 54 -145 40 -177 -15 -37
-40 -55 -73 -55 -14 0 -21 -6 -21 -20 0 -15 7 -20 30 -20 44 0 77 19 95 55 8
18 42 110 75 205 l60 171 -27 -3 c-25 -3 -30 -11 -60 -108 -18 -58 -36 -112
-39 -120 -3 -8 -23 41 -46 108 -37 110 -43 122 -64 122 -13 0 -24 -3 -24 -7z"/>
<path d="M9202 7415 c-72 -60 -61 -219 18 -260 33 -17 112 -20 141 -5 10 6 19
19 19 29 0 16 -5 17 -51 7 -63 -13 -99 4 -115 54 l-12 35 95 3 95 3 -4 51 c-4
42 -11 57 -37 80 -42 38 -106 39 -149 3z m116 -28 c6 -6 13 -24 17 -40 l7 -27
-66 0 c-72 0 -83 12 -50 58 17 25 74 31 92 9z"/>
<path d="M9649 7293 l37 -148 30 0 c29 0 29 2 61 115 17 63 32 117 33 120 1 3
16 -49 34 -115 32 -117 34 -120 62 -123 l29 -3 38 144 c20 80 37 147 37 151 0
3 -11 6 -24 6 -22 0 -25 -8 -45 -92 -11 -51 -24 -108 -27 -127 -7 -32 -8 -30
-24 35 -45 175 -49 185 -78 182 -25 -3 -29 -11 -61 -125 l-35 -122 -23 112
c-29 140 -27 137 -57 137 l-24 0 37 -147z"/>
<path d="M10109 7425 c-51 -28 -75 -138 -45 -209 38 -91 166 -105 215 -25 44
73 34 178 -21 224 -34 29 -106 34 -149 10z m123 -42 c22 -26 30 -69 22 -120
-8 -57 -33 -83 -79 -83 -29 0 -39 6 -55 33 -31 50 -23 156 13 179 23 14 83 9
99 -9z"/>
<path d="M10390 7290 c0 -140 1 -150 19 -150 16 0 19 11 23 107 5 101 6 108
32 130 15 13 38 23 50 23 20 0 36 16 36 36 0 2 -16 4 -35 4 -26 0 -43 -7 -60
-26 l-25 -27 0 27 c0 19 -5 26 -20 26 -19 0 -20 -7 -20 -150z"/>
<path d="M4140 5471 c-17 -34 4 -63 43 -59 29 3 32 6 32 38 0 32 -3 35 -32 38
-24 2 -34 -2 -43 -17z"/>
<path d="M5160 5280 l0 -210 45 0 45 0 0 210 0 210 -45 0 -45 0 0 -210z"/>
<path d="M5342 5478 c-28 -28 -3 -72 39 -66 30 4 47 33 33 56 -14 21 -55 27
-72 10z"/>
<path d="M5546 5469 c-20 -16 -26 -29 -26 -58 0 -31 -5 -40 -25 -49 -15 -7
-25 -20 -25 -32 0 -15 7 -20 25 -20 l25 0 0 -120 0 -120 40 0 40 0 0 120 0
120 30 0 c27 0 30 3 30 30 0 27 -3 30 -30 30 -25 0 -30 4 -30 24 0 26 22 40
50 31 24 -8 47 50 23 59 -34 13 -101 6 -127 -15z"/>
<path d="M6360 5280 l0 -210 25 0 25 0 0 110 c0 97 2 112 20 130 25 25 72 26
93 2 14 -15 17 -40 17 -130 l0 -112 25 0 25 0 0 115 c0 158 -15 184 -106 185
-17 0 -42 -9 -56 -19 l-25 -20 5 80 5 79 -27 0 -26 0 0 -210z"/>
<path d="M10640 5280 l0 -210 25 0 c23 0 24 4 27 62 2 36 8 63 15 65 7 3 31
-25 55 -61 36 -55 48 -66 71 -66 l29 0 -19 28 c-10 15 -35 53 -57 84 l-38 57
51 60 c28 32 51 61 51 65 0 3 -11 6 -25 6 -18 0 -38 -18 -81 -70 -31 -38 -57
-70 -58 -70 0 0 1 58 3 130 l3 130 -26 0 -26 0 0 -210z"/>
<path d="M3895 5455 c-43 -23 -55 -43 -55 -95 0 -57 16 -81 86 -122 53 -32 74
-63 59 -89 -8 -11 -87 -8 -132 6 -21 7 -23 4 -23 -28 0 -46 25 -61 97 -60 94
1 143 40 143 116 0 44 -28 79 -91 114 -102 57 -57 133 52 88 11 -4 18 0 22 12
2 10 8 25 11 34 14 33 -115 51 -169 24z"/>
<path d="M7130 5271 l0 -201 25 0 c24 0 25 2 25 74 l0 74 53 7 c91 12 132 54
130 130 -2 75 -39 102 -151 111 l-82 7 0 -202z m160 129 c12 -12 20 -33 20
-55 0 -50 -28 -75 -85 -75 l-45 0 0 75 0 75 45 0 c32 0 51 -6 65 -20z"/>
<path d="M7720 5270 l0 -200 25 0 c24 0 25 2 25 74 l0 75 48 6 c97 12 132 47
132 130 0 81 -52 113 -187 114 l-43 1 0 -200z m160 130 c12 -12 20 -33 20 -55
0 -50 -28 -75 -85 -75 l-45 0 0 75 0 75 45 0 c32 0 51 -6 65 -20z"/>
<path d="M8074 5460 c-33 -13 -54 -50 -54 -96 0 -55 21 -79 100 -118 61 -29
65 -34 68 -68 3 -30 -1 -40 -23 -54 -25 -17 -96 -16 -137 1 -14 6 -18 2 -18
-18 0 -31 17 -37 93 -38 91 -1 139 36 139 107 0 51 -25 81 -100 117 -66 32
-67 33 -67 72 0 53 33 72 97 55 37 -11 44 -10 55 7 12 16 11 19 -14 30 -32 14
-108 16 -139 3z"/>
<path d="M8416 5461 c-4 -5 -38 -94 -75 -198 -55 -149 -66 -189 -55 -191 28
-7 39 5 58 62 l20 57 75 -3 75 -3 20 -57 c18 -51 24 -58 47 -58 l27 0 -73 198
c-59 161 -76 198 -93 200 -11 2 -23 -1 -26 -7z m51 -138 c13 -36 23 -70 23
-75 0 -4 -24 -8 -54 -8 l-55 0 27 79 c15 44 29 77 31 75 2 -2 15 -34 28 -71z"/>
<path d="M8807 5463 c-4 -3 -7 -93 -7 -200 l0 -193 25 0 24 0 3 157 3 157 94
-157 c86 -145 96 -157 122 -157 l29 0 0 201 0 200 -22 -3 c-23 -3 -23 -5 -23
-165 0 -89 -1 -161 -1 -160 -1 1 -45 75 -98 165 -80 134 -101 162 -120 162
-12 0 -26 -3 -29 -7z"/>
<path d="M6185 5405 c-8 -19 -24 -39 -35 -45 -26 -14 -26 -30 0 -30 19 0 20
-7 20 -100 0 -121 13 -155 62 -162 45 -7 68 1 68 23 0 15 -7 19 -34 19 -43 0
-46 8 -46 126 l0 94 40 0 c33 0 40 3 40 20 0 17 -7 20 -40 20 -39 0 -40 1 -40
35 0 45 -17 45 -35 0z"/>
<path d="M9513 5405 c-9 -19 -25 -37 -35 -41 -24 -7 -23 -34 2 -34 19 0 20 -7
20 -100 0 -121 13 -155 62 -162 45 -7 68 1 68 23 0 15 -7 19 -34 19 -43 0 -46
8 -46 126 l0 94 41 0 c33 0 40 3 37 18 -2 12 -14 18 -41 20 -35 3 -37 5 -37
38 0 44 -16 44 -37 -1z"/>
<path d="M4418 5365 c-16 -9 -28 -21 -29 -28 0 -7 -4 -2 -9 11 -7 16 -18 22
-40 22 l-30 0 0 -150 0 -150 40 0 40 0 0 93 c0 97 13 139 43 145 39 8 47 -15
47 -129 l0 -109 45 0 45 0 0 95 c0 105 12 145 45 145 39 0 45 -18 45 -132 l0
-108 40 0 40 0 0 128 c-1 88 -5 132 -14 144 -31 42 -116 46 -151 8 -17 -19
-18 -19 -34 1 -22 27 -87 34 -123 14z"/>
<path d="M4938 5361 c-31 -25 -38 -26 -38 -6 0 10 -11 15 -35 15 l-35 0 0
-215 0 -215 40 0 40 0 0 82 c0 81 0 81 20 63 23 -21 75 -24 107 -6 65 34 72
228 10 279 -29 24 -80 26 -109 3z m56 -73 c18 -25 21 -84 7 -121 -12 -32 -48
-44 -69 -24 -19 20 -27 103 -13 140 13 34 53 37 75 5z"/>
<path d="M4140 5220 l0 -150 40 0 40 0 0 150 0 150 -40 0 -40 0 0 -150z"/>
<path d="M5330 5220 l0 -150 45 0 45 0 0 150 0 150 -45 0 -45 0 0 -150z"/>
<path d="M5709 5293 c16 -43 41 -109 55 -147 14 -37 26 -77 26 -86 0 -25 -48
-62 -72 -55 -15 5 -18 1 -18 -29 0 -36 0 -36 44 -36 72 0 93 30 161 227 32 92
62 176 67 186 8 15 3 17 -40 17 l-48 0 -23 -88 c-24 -95 -40 -132 -41 -97 0
11 -11 56 -24 100 l-23 80 -46 3 -47 3 29 -78z"/>
<path d="M6729 5355 c-81 -44 -79 -233 3 -272 40 -20 78 -24 118 -13 33 9 40
15 40 35 0 22 -2 24 -26 15 -69 -27 -144 7 -144 65 0 25 0 25 90 25 l90 0 0
46 c0 39 -5 51 -34 80 -27 27 -42 34 -72 34 -22 -1 -51 -7 -65 -15z m101 -45
c11 -11 20 -29 20 -40 0 -18 -7 -20 -65 -20 -73 0 -84 14 -43 57 26 28 61 30
88 3z"/>
<path d="M7400 5363 c0 -5 25 -73 55 -152 53 -140 54 -145 39 -180 -17 -42
-29 -51 -66 -51 -21 0 -28 -5 -28 -20 0 -16 7 -20 36 -20 46 0 70 14 89 50 13
25 135 366 135 376 0 2 -11 4 -25 4 -22 0 -27 -10 -63 -122 -21 -66 -41 -117
-44 -112 -3 5 -22 60 -42 122 -34 102 -40 112 -62 112 -13 0 -24 -3 -24 -7z"/>
<path d="M9248 5360 c-77 -46 -81 -223 -6 -272 35 -22 86 -29 129 -18 32 9 39
15 39 35 0 22 -2 24 -26 15 -69 -27 -144 7 -144 65 0 25 0 25 90 25 l90 0 0
35 c0 43 -22 88 -52 109 -25 18 -94 21 -120 6z m95 -42 c9 -7 19 -25 23 -40
l6 -28 -66 0 c-57 0 -66 2 -66 18 0 46 66 78 103 50z"/>
<path d="M9650 5353 c0 -10 15 -76 33 -148 33 -129 33 -130 63 -133 l30 -3 28
103 c16 57 31 112 34 123 3 14 11 -2 24 -50 51 -187 46 -175 78 -175 17 0 30
1 30 3 0 2 16 64 35 138 41 160 42 161 13 157 -20 -3 -26 -15 -46 -98 -12 -52
-25 -106 -28 -120 -5 -19 -14 4 -38 95 -32 118 -33 120 -61 120 -28 0 -29 -3
-60 -112 -33 -119 -45 -144 -46 -97 0 16 -10 70 -22 119 -19 77 -25 90 -45 93
-16 3 -22 -2 -22 -15z"/>
<path d="M10125 5337 c-22 -22 -35 -47 -40 -75 -11 -67 3 -122 40 -159 29 -29
40 -33 85 -33 46 0 56 4 85 33 60 60 60 174 0 234 -29 29 -39 33 -85 33 -45 0
-56 -4 -85 -33z m134 -26 c37 -37 39 -130 5 -179 -22 -31 -88 -31 -108 1 -35
53 -28 163 12 187 28 16 71 11 91 -9z"/>
<path d="M10420 5220 l0 -150 25 0 25 0 0 104 c0 117 12 145 65 149 17 1 33 7
37 12 31 42 -41 49 -84 8 l-28 -27 0 27 c0 20 -5 27 -20 27 -19 0 -20 -7 -20
-150z"/>
<path d="M4000 3211 l0 -211 45 0 45 0 -2 208 -3 207 -42 3 -43 3 0 -210z"/>
<path d="M5130 3211 l0 -211 25 0 25 0 0 104 c0 121 13 149 70 149 51 0 60
-21 60 -145 l0 -108 25 0 25 0 0 121 c0 120 0 121 -29 150 -36 35 -86 39 -124
9 -14 -11 -27 -20 -29 -20 -1 0 -3 35 -3 77 0 73 -1 78 -22 81 l-23 3 0 -210z"/>
<path d="M10120 3210 c0 -203 1 -210 20 -210 11 0 20 7 20 15 0 20 7 19 37 -5
38 -30 88 -26 123 8 27 28 50 85 50 127 0 42 -23 99 -50 127 -35 35 -85 38
-124 7 l-26 -20 0 80 c0 80 0 81 -25 81 l-25 0 0 -210z m160 32 c43 -35 43
-159 -1 -194 -25 -21 -63 -18 -88 7 -19 18 -26 121 -12 158 17 44 65 58 101
29z"/>
<path d="M10447 3413 c-4 -3 -7 -98 -7 -210 l0 -203 25 0 25 0 0 210 c0 197
-1 210 -18 210 -10 0 -22 -3 -25 -7z"/>
<path d="M3434 3386 c-43 -19 -64 -53 -64 -102 0 -52 23 -83 95 -123 42 -24
55 -37 55 -54 0 -47 -48 -61 -117 -32 -19 8 -37 15 -40 15 -2 0 -3 -17 -1 -37
3 -34 7 -39 43 -52 58 -20 130 -7 167 29 22 23 28 37 28 73 0 55 -23 87 -91
123 -57 32 -74 68 -43 91 18 13 37 13 90 -2 15 -5 23 0 32 20 16 34 11 40 -42
54 -57 14 -73 13 -112 -3z"/>
<path d="M5974 3382 c-66 -31 -89 -79 -89 -182 0 -136 43 -197 148 -206 42 -4
61 -1 96 18 65 34 86 80 86 188 0 93 -19 141 -71 175 -40 26 -121 29 -170 7z
m151 -56 c25 -25 45 -83 45 -131 0 -48 -20 -106 -45 -131 -18 -18 -35 -24 -70
-24 -26 0 -55 5 -66 10 -32 18 -53 70 -53 140 -2 113 34 159 122 160 32 0 49
-6 67 -24z"/>
<path d="M6813 3384 c-3 -8 2 -23 11 -32 15 -15 17 -15 32 0 21 21 11 48 -16
48 -11 0 -23 -7 -27 -16z"/>
<path d="M7457 3393 c-13 -12 -7 -41 10 -47 21 -8 48 17 40 38 -6 16 -38 22
-50 9z"/>
<path d="M8327 3386 c-3 -8 0 -21 6 -31 17 -22 47 -9 47 21 0 19 -5 24 -24 24
-13 0 -26 -6 -29 -14z"/>
<path d="M9270 3195 l0 -195 25 0 c24 0 25 2 25 75 l0 75 41 0 c87 0 139 49
139 130 0 82 -39 110 -155 110 l-75 0 0 -195z m154 134 c49 -38 31 -111 -32
-129 -72 -19 -72 -19 -72 70 l0 80 39 0 c24 0 48 -8 65 -21z"/>
<path d="M4952 3331 c-6 -16 -20 -34 -31 -41 -27 -14 -27 -30 -1 -30 19 0 20
-7 20 -95 0 -144 28 -190 105 -171 34 9 35 45 2 39 -45 -9 -57 18 -57 128 l0
99 40 0 c29 0 40 4 40 15 0 11 -11 15 -40 15 -39 0 -40 1 -40 35 0 44 -24 47
-38 6z"/>
<path d="M6642 3331 c-6 -16 -20 -34 -31 -41 -27 -14 -27 -30 -1 -30 19 0 20
-7 20 -102 0 -114 11 -148 51 -162 36 -12 79 0 79 23 0 14 -6 17 -27 13 -42
-8 -53 18 -53 130 l0 98 40 0 c29 0 40 4 40 15 0 11 -11 15 -40 15 -39 0 -40
1 -40 35 0 44 -24 47 -38 6z"/>
<path d="M8155 3331 c-3 -15 -17 -34 -30 -41 -30 -16 -32 -30 -5 -30 18 0 20
-7 20 -82 1 -148 22 -192 90 -186 27 2 36 8 38 24 2 17 -1 21 -20 17 -46 -7
-53 8 -53 119 l0 103 38 3 c23 2 37 8 37 17 0 9 -14 15 -37 17 -35 3 -38 6
-41 36 -4 40 -28 43 -37 3z"/>
<path d="M3765 3300 c-73 -16 -105 -62 -105 -152 0 -101 60 -165 147 -154 56
7 81 23 104 68 34 66 20 168 -29 211 -26 23 -78 35 -117 27z m55 -70 c15 0 31
-78 24 -115 -7 -41 -25 -58 -56 -53 -32 4 -50 44 -45 102 5 51 28 82 55 71 8
-3 18 -5 22 -5z"/>
<path d="M4565 3300 c-77 -16 -107 -60 -107 -151 0 -110 58 -164 165 -156 66
6 87 19 87 54 0 21 -4 24 -22 20 -78 -19 -94 -18 -121 3 -15 12 -27 30 -27 41
0 17 8 19 90 19 l90 0 0 40 c0 43 -18 88 -44 109 -22 18 -76 28 -111 21z m63
-72 c7 -7 12 -20 12 -30 0 -15 -9 -18 -50 -18 -52 0 -58 7 -40 41 12 22 59 26
78 7z"/>
<path d="M4133 3288 c2 -7 26 -75 53 -151 l48 -138 45 3 44 3 52 148 52 147
-43 0 -43 0 -21 -72 c-12 -40 -26 -90 -33 -111 l-10 -38 -19 68 c-10 37 -23
87 -29 111 -11 42 -12 42 -56 42 -32 0 -44 -4 -40 -12z"/>
<path d="M5510 3288 c-45 -24 -70 -74 -70 -142 0 -74 25 -121 75 -142 62 -25
145 -12 145 24 0 16 -7 17 -63 14 -60 -4 -65 -2 -85 23 -12 15 -22 36 -22 46
0 17 9 19 91 19 l91 0 -4 56 c-4 42 -11 61 -30 80 -30 30 -92 41 -128 22z m98
-56 c6 -9 12 -24 12 -34 0 -16 -9 -18 -65 -18 -67 0 -74 5 -54 41 21 39 80 45
107 11z"/>
<path d="M6383 3280 c-27 -16 -33 -17 -33 -5 0 9 -10 15 -25 15 l-25 0 2 -212
c3 -212 3 -213 26 -216 21 -3 22 -1 22 84 0 84 1 86 18 71 26 -24 77 -32 112
-17 63 26 90 152 50 235 -31 65 -87 82 -147 45z m94 -47 c21 -27 27 -104 12
-147 -29 -82 -115 -66 -133 25 -11 58 7 127 37 139 28 12 69 3 84 -17z"/>
<path d="M7037 3280 c-30 -24 -37 -25 -37 -5 0 8 -9 15 -20 15 -19 0 -20 -7
-20 -145 l0 -145 25 0 25 0 0 101 c0 55 5 109 10 119 15 28 45 42 75 34 33 -8
45 -53 45 -166 0 -87 0 -88 25 -88 l25 0 0 106 c0 58 4 114 10 124 14 26 57
34 86 15 23 -15 24 -20 24 -130 l0 -115 25 0 25 0 0 123 c-1 152 -11 172 -89
172 -38 0 -56 -5 -72 -21 l-21 -21 -23 23 c-30 30 -83 32 -118 4z"/>
<path d="M7623 3285 c-21 -9 -35 -23 -39 -41 -12 -47 7 -76 70 -109 77 -39 89
-59 56 -87 -25 -20 -75 -21 -123 -2 -29 11 -21 -31 8 -44 62 -29 159 -3 172
45 16 61 0 85 -80 123 -41 20 -53 31 -55 52 -3 22 2 27 25 32 15 4 44 2 62 -4
26 -7 37 -7 43 3 13 20 10 24 -23 36 -42 14 -77 13 -116 -4z"/>
<path d="M7878 3289 c-27 -10 -37 -32 -20 -43 5 -3 27 0 50 6 55 14 95 -9 90
-50 -2 -22 -9 -28 -33 -30 -108 -9 -135 -28 -135 -96 0 -37 5 -48 28 -66 31
-25 91 -23 121 4 22 20 31 20 31 1 0 -8 9 -15 20 -15 19 0 20 7 20 119 0 111
-2 122 -23 147 -18 21 -34 27 -73 30 -27 2 -61 -1 -76 -7z m122 -179 c0 -34
-38 -80 -65 -80 -33 0 -55 20 -55 50 0 37 32 60 82 60 36 0 38 -2 38 -30z"/>
<path d="M8519 3277 c-45 -30 -59 -60 -59 -133 0 -78 27 -123 87 -143 35 -13
46 -13 79 0 57 22 84 68 84 143 0 126 -99 195 -191 133z m121 -43 c11 -11 15
-36 15 -90 0 -68 -3 -78 -24 -95 -29 -24 -62 -24 -92 0 -19 15 -24 30 -27 83
-5 72 7 104 41 118 27 11 67 4 87 -16z"/>
<path d="M8890 3293 c-8 -3 -23 -12 -32 -21 -16 -13 -18 -13 -24 2 -3 9 -15
16 -25 16 -18 0 -19 -9 -19 -145 l0 -145 25 0 c25 0 25 0 25 95 0 65 5 105 15
124 26 52 95 48 115 -5 6 -14 10 -68 10 -120 0 -94 0 -94 25 -94 l25 0 -1 103
c0 117 -13 166 -49 184 -26 13 -64 16 -90 6z"/>
<path d="M9656 3275 c-28 -30 -36 -31 -36 -5 0 13 -7 20 -20 20 -19 0 -20 -7
-20 -145 l0 -145 25 0 c25 0 25 0 25 99 0 84 3 102 21 125 15 19 30 26 55 26
30 0 34 3 34 25 0 21 -5 25 -30 25 -20 0 -39 -9 -54 -25z"/>
<path d="M9855 3285 c-56 -28 -81 -103 -63 -187 18 -85 100 -128 175 -92 47
23 73 72 73 137 0 120 -89 189 -185 142z m114 -50 c16 -16 26 -102 17 -140
-16 -63 -78 -84 -121 -40 -21 20 -25 34 -25 85 0 34 5 70 11 81 20 39 85 46
118 14z"/>
<path d="M10634 3281 c-62 -37 -81 -143 -41 -221 18 -37 30 -47 66 -59 61 -19
135 -5 139 26 3 21 1 22 -47 16 -72 -8 -100 2 -117 42 -8 19 -14 37 -14 39 0
3 42 7 93 8 88 3 92 4 95 27 2 13 -3 42 -12 65 -27 71 -98 96 -162 57z m93
-36 c11 -8 23 -26 25 -40 5 -25 5 -25 -63 -25 l-68 0 11 31 c15 44 58 60 95
34z"/>
<path d="M10980 3293 c-8 -3 -23 -12 -32 -21 -16 -14 -18 -13 -18 1 0 11 -8
17 -25 17 l-25 0 0 -145 0 -145 25 0 c25 0 25 1 25 83 0 106 14 155 46 167 35
14 41 13 64 -10 18 -18 20 -33 20 -130 0 -110 0 -110 24 -110 24 0 24 1 28
110 3 123 13 143 69 143 50 0 59 -21 59 -145 l0 -108 26 0 26 0 -4 126 c-3
124 -3 126 -31 150 -16 14 -41 24 -58 24 -34 0 -89 -25 -89 -41 0 -6 -14 1
-31 15 -29 25 -65 31 -99 19z"/>
<path d="M6820 3145 c0 -138 1 -145 20 -145 19 0 20 7 20 145 0 138 -1 145
-20 145 -19 0 -20 -7 -20 -145z"/>
<path d="M7450 3145 l0 -145 25 0 25 0 0 145 0 145 -25 0 -25 0 0 -145z"/>
<path d="M8330 3145 l0 -145 25 0 25 0 0 145 0 145 -25 0 -25 0 0 -145z"/>
<path d="M6690 1236 c-21 -26 -8 -61 23 -64 49 -6 73 30 41 62 -19 20 -48 20
-64 2z"/>
<path d="M7770 1040 l0 -210 25 0 c25 0 25 1 25 89 0 104 13 149 47 162 35 13
73 0 84 -28 5 -13 9 -69 9 -124 0 -99 0 -99 25 -99 l25 0 0 105 c0 121 -15
170 -55 185 -41 16 -80 12 -109 -11 l-26 -20 0 80 c0 80 0 81 -25 81 l-25 0 0
-210z"/>
<path d="M9740 1041 l0 -211 25 0 25 0 -2 208 c-3 206 -3 207 -25 210 l-23 3
0 -210z"/>
<path d="M4502 1219 c-38 -11 -72 -60 -72 -104 0 -45 28 -82 90 -118 37 -22
56 -41 58 -56 7 -49 -42 -65 -112 -36 l-36 15 0 -39 c0 -39 2 -41 42 -51 58
-16 123 -4 160 29 26 23 31 35 32 73 1 53 -23 87 -84 118 -49 25 -73 54 -65
79 8 27 38 35 81 21 40 -13 49 -8 59 31 6 26 4 28 -45 38 -58 13 -63 13 -108
0z"/>
<path d="M8550 1025 l0 -195 25 0 c25 0 25 1 25 80 l0 80 29 0 c26 0 34 -9 75
-80 42 -73 49 -80 77 -80 30 0 31 1 17 23 -8 12 -31 49 -52 83 l-37 61 36 36
c29 29 35 42 35 77 0 23 -5 50 -11 62 -16 30 -71 48 -149 48 l-70 0 0 -195z
m154 134 c55 -44 24 -115 -56 -125 l-48 -7 0 77 0 76 39 0 c24 0 48 -8 65 -21z"/>
<path d="M7598 1160 c-5 -17 -19 -35 -29 -41 -25 -13 -24 -29 1 -29 19 0 20
-7 20 -110 0 -104 1 -112 25 -135 23 -24 57 -31 89 -19 27 10 19 34 -12 34
-46 0 -52 15 -52 127 l0 103 35 0 c28 0 35 4 35 20 0 16 -7 20 -35 20 -32 0
-35 2 -35 30 0 40 -28 40 -42 0z"/>
<path d="M9895 1161 c-3 -15 -17 -34 -30 -41 -30 -16 -32 -30 -5 -30 19 0 20
-7 20 -95 0 -111 16 -161 53 -170 42 -11 72 -2 75 21 2 17 -1 21 -20 17 -46
-7 -53 8 -53 119 l0 103 38 3 c30 3 37 7 35 20 -2 12 -15 18 -41 20 -34 3 -37
6 -37 33 0 38 -26 39 -35 0z"/>
<path d="M5220 1132 c-14 -2 -35 -13 -47 -25 l-23 -20 0 21 c0 18 -6 22 -35
22 l-35 0 0 -150 0 -150 40 0 40 0 0 78 c0 99 13 148 43 156 42 11 57 -24 57
-135 l0 -99 40 0 40 0 0 89 c0 126 21 167 71 141 17 -10 19 -22 19 -120 l0
-110 46 0 46 0 -3 124 c-4 115 -6 126 -28 150 -32 34 -108 37 -136 6 -17 -18
-20 -19 -35 -5 -22 20 -67 32 -100 27z"/>
<path d="M5736 1129 c-15 -4 -37 -16 -47 -25 -18 -16 -19 -16 -19 4 0 18 -6
22 -35 22 l-35 0 0 -150 0 -150 39 0 38 0 5 98 c6 111 11 128 40 135 49 13 58
-8 58 -140 l0 -93 39 0 39 0 4 106 c3 90 6 108 23 120 10 8 22 14 25 14 3 0
15 -6 25 -14 17 -12 20 -30 23 -120 l4 -106 39 0 39 0 0 109 c0 162 -16 191
-103 191 -31 0 -49 -6 -62 -20 -18 -20 -19 -20 -39 -1 -26 23 -62 30 -100 20z"/>
<path d="M6572 1128 c-18 -5 -35 -15 -39 -23 -7 -21 -20 -19 -26 5 -4 15 -14
20 -36 20 l-31 0 0 -150 0 -150 40 0 40 0 0 83 c0 104 12 129 67 141 40 9 42
11 36 40 -8 41 -13 45 -51 34z"/>
<path d="M6910 1129 c-48 -10 -84 -53 -76 -92 8 -40 21 -54 78 -83 102 -52 61
-91 -60 -58 -22 6 -23 4 -20 -27 3 -32 6 -35 49 -43 95 -18 169 20 169 86 0
46 -19 70 -79 98 -36 16 -51 29 -51 43 0 18 5 19 53 13 50 -5 55 -4 65 19 6
14 7 27 2 30 -20 12 -97 21 -130 14z"/>
<path d="M7200 1129 c-69 -15 -113 -102 -96 -193 17 -90 117 -139 215 -105 27
9 31 16 31 46 0 27 -3 33 -12 25 -7 -5 -32 -13 -56 -17 -53 -9 -92 13 -92 50
0 25 1 25 90 25 l90 0 0 30 c0 43 -29 109 -53 122 -35 18 -80 25 -117 17z m70
-69 c35 -35 26 -50 -30 -50 -43 0 -50 3 -50 19 0 18 34 51 52 51 5 0 17 -9 28
-20z"/>
<path d="M4730 1020 c0 -128 14 -174 57 -191 35 -13 90 -5 114 17 17 15 19 15
25 0 4 -10 18 -16 35 -16 l29 0 0 150 0 150 -40 0 -40 0 0 -98 c0 -113 -14
-145 -58 -140 -33 4 -39 27 -41 151 l-1 87 -40 0 -40 0 0 -110z"/>
<path d="M6152 1120 c-22 -9 -22 -11 -7 -40 13 -26 19 -29 36 -20 11 6 34 10
52 8 27 -2 33 -8 35 -30 3 -27 2 -28 -45 -28 -90 0 -142 -59 -114 -132 22 -58
104 -75 153 -31 19 17 20 17 29 0 6 -10 22 -17 39 -17 l30 0 0 105 c0 114 -14
166 -48 184 -25 13 -128 13 -160 1z m118 -179 c0 -28 -22 -61 -40 -61 -23 0
-40 14 -40 35 0 30 21 46 73 54 4 0 7 -12 7 -28z"/>
<path d="M6680 980 l0 -150 40 0 40 0 0 150 0 150 -40 0 -40 0 0 -150z"/>
<path d="M8144 1111 c-17 -10 -37 -34 -45 -52 -20 -49 -17 -137 6 -176 19 -33
76 -63 119 -63 41 0 86 21 86 40 0 16 -7 17 -62 13 -73 -5 -93 5 -107 55 l-10
32 95 0 94 0 0 36 c0 105 -93 166 -176 115z m94 -38 c11 -10 23 -28 27 -40 6
-22 4 -23 -59 -23 -56 0 -66 3 -66 18 0 22 10 36 35 50 28 16 40 15 63 -5z"/>
<path d="M8912 1110 c-87 -53 -82 -227 8 -272 60 -31 150 -18 150 21 0 17 -6
18 -62 14 -70 -6 -90 6 -103 60 l-7 27 90 0 c52 0 94 4 97 10 15 24 -8 95 -40
127 -39 39 -83 43 -133 13z m106 -48 c6 -9 12 -24 12 -34 0 -16 -9 -18 -65
-18 -36 0 -65 2 -65 4 0 3 4 16 10 31 17 44 78 54 108 17z"/>
<path d="M9169 1101 c-48 -48 -32 -94 44 -132 55 -28 77 -48 77 -71 0 -34 -73
-46 -136 -21 -9 3 -14 -2 -14 -16 0 -50 135 -54 178 -6 44 52 22 100 -69 144
-37 19 -55 34 -57 49 -5 32 33 47 84 33 23 -6 42 -7 48 -1 15 15 -1 37 -34 44
-63 12 -91 7 -121 -23z"/>
<path d="M9410 1005 l0 -127 30 -30 c27 -27 36 -30 71 -25 22 3 48 12 58 21
22 20 31 20 31 1 0 -8 9 -15 20 -15 19 0 20 7 20 151 0 150 0 150 -22 147 -22
-3 -23 -8 -28 -114 -3 -69 -10 -117 -18 -127 -20 -24 -61 -30 -88 -12 -22 14
-24 22 -26 133 -3 113 -4 117 -25 120 -23 3 -23 2 -23 -123z"/>
<path d="M10088 1114 c-15 -8 -31 -26 -34 -41 -12 -46 7 -75 70 -108 77 -39
89 -59 56 -87 -25 -20 -56 -21 -117 -2 -34 9 -31 -29 2 -44 62 -29 159 -3 172
45 16 61 0 85 -80 123 -37 18 -53 32 -55 47 -5 33 33 48 84 34 29 -8 40 -8 46
2 13 20 10 24 -23 36 -43 15 -88 13 -121 -5z"/>
</g>
</svg>
